<?xml version="1.0" encoding="utf-8"?>
<!-- Svg Vector Icons : http://www.onlinewebfonts.com/icon -->
<!DOCTYPE svg PUBLIC "-//W3C//DTD SVG 1.1//EN" "http://www.w3.org/Graphics/SVG/1.1/DTD/svg11.dtd">
<svg version="1.1" xmlns="http://www.w3.org/2000/svg" xmlns:xlink="http://www.w3.org/1999/xlink" x="0px" y="0px" viewBox="0 0 1000 1000" enable-background="new 0 0 1000 1000" xml:space="preserve">
<metadata> Svg Vector Icons : http://www.onlinewebfonts.com/icon </metadata>
<g><g transform="translate(0.000000,512.000000) scale(0.100000,-0.100000)"><path d="M4530.1,5007.9C3375.4,4889,2341.7,4400,1530.4,3588.6C751.6,2809.9,287.5,1860.5,124.4,723.1c-32.6-226.3-32.6-982,0-1208.3c163-1137.4,629.1-2086.8,1405.9-2865.5c776.8-776.8,1730-1244.8,2865.5-1405.9c226.3-32.6,982-32.6,1208.3,0c939.8,134.3,1779.9,491,2474.2,1053c987.8,797.9,1611.1,1916.1,1797.2,3218.4c32.6,226.3,32.6,982,0,1208.3c-161.1,1135.5-629.1,2088.7-1405.9,2865.5c-759.5,759.5-1687.8,1223.7-2779.2,1392.5C5448.8,5017.5,4775.6,5034.8,4530.1,5007.9z M4827.4,2497.3V291.6H2621.7H414.1L425.6,422c57.5,648.3,195.6,1160.4,458.4,1701.3c241.7,492.9,481.4,828.6,882.3,1229.4c282,280,429.6,402.8,725,598.4c667.5,439.2,1463.4,700.1,2293.9,749.9l42.2,1.9V2497.3z M5642.5,4653.1c255.1-34.5,615.7-120.8,880.4-212.9c188-65.2,625.3-264.7,759.5-347.1l67.1-42.2H6262H5172.6v326.1v328l130.4-11.5C5374,4685.7,5527.4,4668.5,5642.5,4653.1z M7994,3582.9c253.2-220.6,498.7-485.3,679-725l51.8-72.9H6948.7H5172.6v469.9v469.9h1331.1h1331.1L7994,3582.9z M9071.9,2215.3c107.4-212.9,228.3-494.8,270.4-632.9l13.4-44.1H7265.1H5172.6v460.3v460.3h1887.3h1885.4L9071.9,2215.3z M9467,1141.3c24.9-97.8,72.9-389.4,88.2-533.2c5.8-63.3,15.3-161.1,21.1-214.8l9.6-101.7H7380.2H5172.6v460.3v460.3h2138.6h2136.6L9467,1141.3z M9576.3-159.1c-5.8-57.5-17.3-155.4-23-214.8c-13.4-140-61.4-433.5-86.3-527.5l-19.2-72.9H5000H552.2L533-901.4c-24.9,94-72.9,387.4-86.3,527.5c-5.8,59.5-17.3,157.3-23,214.8l-9.6,105.5H5000h4585.9L9576.3-159.1z M9342.3-1342.5c-63.3-209.1-291.5-702-418.1-907.2c-47.9-74.8-47.9-74.8-49.9-23v51.8H4963.6H1054.7l-126.6,245.5c-109.3,214.8-234,502.5-272.4,632.9l-11.5,42.2H5000h4355.8L9342.3-1342.5z M8673-2618c-180.3-241.7-425.8-506.3-679-726.9l-159.2-141.9H5000H2165.2L2006-3344.9c-253.2,220.6-498.7,485.3-679,726.9l-51.8,71H5000h3724.8L8673-2618z M7282.4-3855.1c-128.5-78.6-527.5-262.8-719.2-331.8c-517.9-187.9-978.2-266.6-1563.2-266.6s-1045.3,78.7-1563.2,266.6c-191.8,69-590.7,253.2-719.2,331.8l-67.1,42.2H5000h2349.6L7282.4-3855.1z"/><path d="M2723.3,3283.7c-433.5-78.6-803.6-423.9-914.9-857.3c-38.4-149.6-38.4-418.1,0-567.7c53.7-209.1,140-356.7,305-523.6c117-117,188-172.6,297.3-226.3c337.6-164.9,698.2-164.9,1031.9,0c153.4,74.8,176.5,103.6,40.3,51.8c-134.3-51.8-491-46-650.2,9.6c-147.7,49.9-264.7,124.7-387.4,245.5c-189.9,186-281.9,393.2-297.3,669.4c-17.3,299.2,71,540.9,276.2,759.5c141.9,149.6,347.1,266.6,537,305c138.1,28.8,406.6,15.3,521.7-26.9c115.1-42.2,117-28.8,7.7,32.6C3270,3272.2,2959.3,3325.9,2723.3,3283.7z"/><path d="M3502.1,2765.8c-24.9-94-49.9-172.6-55.6-172.6s-61.4,61.4-122.7,134.3c-63.3,74.8-115.1,132.3-118.9,130.4c-1.9-3.8,9.6-76.7,24.9-164.9c17.3-86.3,24.9-163,21.1-168.8c-11.5-9.6-49.9,3.8-212.9,76.7l-113.2,51.8l107.4-151.5l107.4-151.5l-90.2-13.4c-47.9-5.8-132.3-11.5-186-11.5h-97.8l143.8-78.6c78.7-44.1,155.4-84.4,168.8-92.1c15.4-7.7-38.4-46-143.8-103.6l-168.8-90.2l95.9-1.9c53.7,0,138.1-7.7,188-13.4l94-13.4l-65.2-86.3c-36.4-47.9-84.4-115.1-109.3-147.7l-42.2-63.3l157.3,67.1c86.3,38.4,161.1,63.3,166.9,59.5c3.8-5.8-3.8-82.5-21.1-168.8c-15.3-88.2-26.9-161.1-24.9-164.9c3.8-1.9,55.6,55.6,118.9,130.4c61.4,72.9,118.9,134.3,124.7,134.3c7.7,0,19.2-28.8,24.9-61.4c5.8-34.5,26.8-115.1,46-178.4l34.5-115.1l44.1,163c24.9,90.2,49.9,168.8,57.5,176.5c7.7,7.7,63.3-46,126.6-118.9c61.4-72.9,115.1-130.4,118.9-126.6c3.8,1.9-7.7,74.8-26.9,163c-17.2,86.3-26.8,161.1-21.1,165c11.5,11.5,49.9-1.9,214.8-76.7c103.6-46,111.2-46,86.3-11.5c-15.3,21.1-63.3,90.2-107.4,151.5l-80.5,113.2l117,13.4c63.3,5.8,147.7,11.5,186.1,11.5c65.2,0,61.4,5.8-97.8,90.2l-166.9,90.1l166.9,92.1l166.9,92.1H4252c-47.9,0-130.4,5.7-186,11.5l-99.7,13.4l86.3,117c138.1,189.9,140,188-32.6,113.2c-84.4-36.4-159.2-61.4-165-55.6c-5.7,5.8,1.9,80.6,21.1,168.8c17.3,86.3,28.8,159.2,24.9,161.1c-3.8,3.8-57.5-53.7-118.9-126.6c-63.3-72.9-118.9-126.6-126.6-118.9c-7.7,7.7-32.6,84.4-55.6,172.6c-23,86.3-44.1,157.3-47.9,157.3C3550,2938.4,3527,2861.7,3502.1,2765.8z"/></g></g>
</svg>