<?xml version="1.0" standalone="no"?>
<!DOCTYPE svg PUBLIC "-//W3C//DTD SVG 20010904//EN"
 "http://www.w3.org/TR/2001/REC-SVG-20010904/DTD/svg10.dtd">
<svg version="1.0" xmlns="http://www.w3.org/2000/svg"
 width="512.000000pt" height="512.000000pt" viewBox="0 0 512.000000 512.000000"
 preserveAspectRatio="xMidYMid meet">
<metadata>
Created by potrace 1.15, written by Peter Selinger 2001-2017
</metadata>
<g transform="translate(0.000000,512.000000) scale(0.100000,-0.100000)"
fill="#000000" stroke="none">
<path d="M1900 5113 c-93 -9 -248 -38 -370 -69 -692 -172 -1247 -520 -1452
-909 -96 -180 -97 -207 -23 -412 326 -909 786 -1554 1360 -1911 102 -63 258
-140 355 -174 l65 -23 -3 -165 c-11 -518 113 -953 364 -1275 103 -132 115
-142 218 -160 115 -20 378 -20 511 0 376 56 763 235 1115 515 125 100 405 377
515 510 173 209 370 491 504 721 58 100 61 109 61 171 0 77 -35 206 -84 313
-113 244 -365 513 -677 723 -363 243 -778 428 -1084 482 -38 6 -77 15 -85 20
-11 5 -17 35 -22 116 -22 339 -101 738 -222 1123 -30 93 -57 174 -60 180 -4 6
-33 28 -64 50 -192 130 -402 182 -717 179 -93 -1 -186 -3 -205 -5z m390 -213
c128 -17 221 -43 315 -90 60 -30 94 -53 102 -70 19 -42 82 -255 123 -420 63
-252 104 -500 125 -756 l7 -81 -104 -6 c-115 -6 -242 -36 -335 -77 -59 -27
-62 -30 -112 -121 -28 -52 -79 -148 -113 -215 l-62 -121 -89 -12 c-152 -20
-282 -64 -402 -135 -178 -106 -350 -300 -362 -410 -5 -38 -1 -47 25 -77 26
-29 37 -34 75 -34 52 0 86 25 118 88 48 93 214 235 342 292 58 25 176 59 183
52 3 -2 -15 -55 -40 -118 -80 -207 -161 -481 -196 -664 -19 -102 -13 -96 -73
-73 -89 33 -248 117 -348 184 -443 296 -823 809 -1107 1494 -71 171 -142 366
-142 391 0 28 72 160 122 225 57 75 176 188 271 258 322 238 868 445 1307 495
104 12 281 12 370 1z m932 -1660 c371 -71 839 -300 1186 -579 250 -202 427
-439 482 -647 l20 -78 -57 -96 c-309 -520 -698 -967 -1081 -1239 -263 -187
-543 -309 -837 -367 -121 -24 -445 -26 -490 -4 -72 37 -230 297 -293 485 -75
222 -102 390 -102 643 0 498 140 1000 449 1617 l116 230 67 23 c38 12 98 26
135 31 96 14 282 5 405 -19z"/>
<path d="M1850 3849 c0 -40 110 -195 181 -255 153 -129 287 -110 489 68 52 46
94 88 93 93 -2 12 -135 58 -233 81 -99 22 -530 33 -530 13z"/>
<path d="M1326 3650 c-174 -125 -289 -240 -394 -393 -36 -53 -43 -70 -33 -77
8 -4 64 -13 125 -20 120 -13 220 -3 283 27 100 47 163 218 149 402 -6 91 -14
131 -25 131 -4 0 -51 -32 -105 -70z"/>
<path d="M2795 2486 c-89 -17 -213 -54 -220 -66 -14 -23 262 -160 551 -274
127 -50 190 -71 192 -62 5 21 -58 188 -93 246 -42 69 -99 124 -149 145 -53 22
-195 28 -281 11z"/>
<path d="M3698 1971 c-139 -31 -142 -21 38 -168 186 -152 275 -213 421 -290
l106 -56 -6 47 c-15 108 -83 271 -152 365 -80 109 -217 143 -407 102z"/>
<path d="M2454 1941 c-37 -22 -48 -49 -70 -161 -22 -114 -30 -432 -14 -542 24
-165 91 -328 179 -430 74 -87 207 -163 329 -188 91 -19 245 -8 357 25 170 50
397 182 573 335 94 81 102 93 102 150 0 69 -30 90 -190 130 -158 39 -342 95
-455 139 -169 65 -309 167 -545 397 -80 78 -155 146 -167 153 -31 16 -64 14
-99 -8z m485 -615 c53 -35 133 -80 178 -100 83 -37 360 -131 421 -142 17 -3
32 -9 32 -13 0 -10 -172 -122 -235 -153 -145 -73 -296 -106 -399 -87 -221 39
-347 233 -363 554 -3 67 -3 146 1 178 l7 57 131 -115 c71 -64 173 -144 227
-179z"/>
</g>
</svg>
